# xmcd
#
# Track frame offsets:
#	150
#	15447
#	28299
#	41376
#	54387
#	69289
#	82946
#	96221
#	108486
#	123453
#	141008
#	158397
#	183483
#
# Disc length: 2646 seconds
#
# Revision: 2
# Processed by: cddbd v1.4b41PL1 Copyright (c) Steve Scherf et al.
# Submitted via: EZCDDA 4.3.2
#
DISCID=9b0a540d
DTITLE=Hank Williams III - Risin' Outlaw
DYEAR=1900
DGENRE=
TTITLE0=I Don't Know
TTITLE1=You're The Reason
TTITLE2=If The Shoe Fits
TTITLE3=87 Southbound
TTITLE4=Lonesome For You
TTITLE5=What Did Love Ever Do To You
TTITLE6=On My Own
TTITLE7=Honky Tonk Girls
TTITLE8=Devil's Daughter
TTITLE9=Cocaine Blues
TTITLE10=Thunderstorms And Neon Signs
TTITLE11=Why Don't You Leave Me Alone
TTITLE12=Blue Devil
EXTD=
EXTT0=
EXTT1=
EXTT2=
EXTT3=
EXTT4=
EXTT5=
EXTT6=
EXTT7=
EXTT8=
EXTT9=
EXTT10=
EXTT11=
EXTT12=
PLAYORDER=
